<svg version="1.1" id="Layer_1" xmlns="http://www.w3.org/2000/svg" xmlns:xlink="http://www.w3.org/1999/xlink" x="0px" y="0px"
	 width="100%" viewBox="0 0 460 460" enable-background="new 0 0 460 460" xml:space="preserve">
<path fill="#FFFFFF" opacity="1.000000" stroke="none" 
	d="
M271.000000,461.000000 
	C180.666672,461.000000 90.833336,461.000000 1.000000,461.000000 
	C1.000000,307.666656 1.000000,154.333328 1.000000,1.000000 
	C154.333328,1.000000 307.666656,1.000000 461.000000,1.000000 
	C461.000000,154.333328 461.000000,307.666656 461.000000,461.000000 
	C397.833344,461.000000 334.666656,461.000000 271.000000,461.000000 
M235.612595,242.902069 
	C217.595520,224.884583 199.578430,206.867096 181.556732,188.844986 
	C132.053986,238.311157 82.531143,287.797394 33.013893,337.278076 
	C110.608849,480.977600 295.126129,488.279633 386.757446,393.177948 
	C375.414032,382.098663 364.036865,371.014832 352.692841,359.897186 
	C344.177856,351.552063 335.637512,343.231140 327.231415,334.777130 
	C316.619598,324.104858 306.207642,313.233490 295.568207,302.589203 
	C287.156189,294.173340 278.448456,286.053406 270.020691,277.652893 
	C258.644348,266.313446 247.410538,254.831039 235.612595,242.902069 
M388.104980,180.603378 
	C402.744080,165.891586 417.328766,151.124756 432.088837,136.535324 
	C434.007172,134.639145 434.414856,133.369858 433.054596,131.078491 
	C429.841370,125.665932 427.274658,119.821770 423.668427,114.699974 
	C415.291046,102.801888 407.284576,90.482712 397.611542,79.693611 
	C382.426849,62.756886 364.707794,48.639156 344.882263,37.145477 
	C323.278412,24.620844 300.342834,15.655291 275.967194,10.816755 
	C247.217987,5.110066 218.227859,4.868282 189.368500,10.399507 
	C157.844177,16.441498 128.840073,28.642580 102.591339,47.181759 
	C96.469940,51.505234 90.641937,56.244102 85.051270,60.507889 
	C155.831894,131.311890 226.079086,201.582291 296.779297,272.305847 
	C303.589783,265.336975 310.484131,258.202545 317.466400,251.155289 
	C329.854095,238.652313 342.268982,226.176025 354.721771,213.737839 
	C365.647217,202.825180 376.640137,191.980042 388.104980,180.603378 
M128.451645,212.951660 
	C141.248672,200.180679 154.045700,187.409698 167.127930,174.354095 
	C134.176346,141.422806 101.685875,108.952324 69.198784,76.485229 
	C0.258325,145.652313 -6.980044,250.881104 23.730354,316.770142 
	C24.043861,316.689301 24.458902,316.710297 24.656538,316.513245 
	C59.098392,282.169556 93.524696,247.810272 128.451645,212.951660 
M377.527374,353.972290 
	C385.456329,362.211517 393.385284,370.450775 401.340393,378.717194 
	C421.718475,356.854736 447.999298,313.818237 454.719391,261.137695 
	C459.365387,224.716782 455.348785,189.436493 442.969635,154.030792 
	C398.409607,198.556839 354.527039,242.405975 310.068878,286.830231 
	C332.700287,309.334900 354.878845,331.389221 377.527374,353.972290 
z"/>
<path fill="#CC2A37" opacity="1.000000" stroke="none" 
	d="
M235.864090,243.156006 
	C247.410538,254.831039 258.644348,266.313446 270.020691,277.652893 
	C278.448456,286.053406 287.156189,294.173340 295.568207,302.589203 
	C306.207642,313.233490 316.619598,324.104858 327.231415,334.777130 
	C335.637512,343.231140 344.177856,351.552063 352.692841,359.897186 
	C364.036865,371.014832 375.414032,382.098663 386.757446,393.177948 
	C295.126129,488.279633 110.608849,480.977600 33.013893,337.278076 
	C82.531143,287.797394 132.053986,238.311157 181.556732,188.844986 
	C199.578430,206.867096 217.595520,224.884583 235.864090,243.156006 
z"/>
<path fill="#09425C" opacity="1.000000" stroke="none" 
	d="
M387.854126,180.854233 
	C376.640137,191.980042 365.647217,202.825180 354.721771,213.737839 
	C342.268982,226.176025 329.854095,238.652313 317.466400,251.155289 
	C310.484131,258.202545 303.589783,265.336975 296.779297,272.305847 
	C226.079086,201.582291 155.831894,131.311890 85.051270,60.507889 
	C90.641937,56.244102 96.469940,51.505234 102.591339,47.181759 
	C128.840073,28.642580 157.844177,16.441498 189.368500,10.399507 
	C218.227859,4.868282 247.217987,5.110066 275.967194,10.816755 
	C300.342834,15.655291 323.278412,24.620844 344.882263,37.145477 
	C364.707794,48.639156 382.426849,62.756886 397.611542,79.693611 
	C407.284576,90.482712 415.291046,102.801888 423.668427,114.699974 
	C427.274658,119.821770 429.841370,125.665932 433.054596,131.078491 
	C434.414856,133.369858 434.007172,134.639145 432.088837,136.535324 
	C417.328766,151.124756 402.744080,165.891586 387.854126,180.854233 
z"/>
<path fill="#F1BF99" opacity="1.000000" stroke="none" 
	d="
M128.201630,213.201630 
	C93.524696,247.810272 59.098392,282.169556 24.656538,316.513245 
	C24.458902,316.710297 24.043861,316.689301 23.728531,316.763062 
	C-6.980044,250.881104 0.258325,145.652313 69.198784,76.485229 
	C101.685875,108.952324 134.176346,141.422806 167.127930,174.354095 
	C154.045700,187.409698 141.248672,200.180679 128.201630,213.201630 
z"/>
<path fill="#6C828D" opacity="1.000000" stroke="none" 
	d="
M377.292389,353.707916 
	C354.878845,331.389221 332.700287,309.334900 310.068878,286.830231 
	C354.527039,242.405975 398.409607,198.556839 442.969635,154.030792 
	C455.348785,189.436493 459.365387,224.716782 454.719391,261.137695 
	C447.999298,313.818237 421.718475,356.854736 401.340393,378.717194 
	C393.385284,370.450775 385.456329,362.211517 377.292389,353.707916 
z"/>
</svg>